<svg preserveAspectRatio="none" width="100%" height="100%" overflow="visible" style="display: block;" viewBox="0 0 468 468" fill="none" xmlns="http://www.w3.org/2000/svg">
<path id="Vector" d="M152.996 5.78716L219.147 68.2371C227.228 75.863 239.638 75.863 247.734 68.2371L313.763 5.92388C327.859 -7.38339 350.522 3.88829 349.139 23.5302L342.729 114.828C341.94 126.145 349.732 136.201 360.623 137.918L449.163 151.833C468.165 154.826 473.755 180.24 457.851 191.345L384.395 242.675C375.22 249.085 372.41 261.724 377.984 271.598L422.475 350.576C432.105 367.681 416.384 388.082 398.02 382.31L312.229 355.376C301.702 352.065 290.462 357.64 286.406 368.167L253.536 453.404C246.488 471.693 221.334 471.724 214.241 453.434L181.112 367.939C177.041 357.442 165.846 351.898 155.35 355.179L69.4228 381.961C51.0738 387.688 35.3981 367.316 44.9979 350.242L89.382 271.249C94.9262 261.375 92.1313 248.766 82.972 242.356L9.27199 190.813C-6.63153 179.678 -1.01137 154.248 18.0212 151.301L106.273 137.629C117.209 135.928 125.032 125.841 124.212 114.494L117.604 23.439C116.192 3.76677 138.87 -7.55049 152.996 5.78716Z" fill="var(--fill-0, white)"/>
</svg>
