<svg preserveAspectRatio="none" width="100%" height="100%" overflow="visible" style="display: block;" viewBox="0 0 348 262" fill="none" xmlns="http://www.w3.org/2000/svg">
<path id="Vector 15" d="M95.511 36.7199C46.1907 29.7561 13.5893 55.2172 1.78445 71.2221C0.999249 72.2866 0.322418 73.4488 0.12903 74.7574C-0.767563 80.8244 2.63892 94.0897 22.1244 111.571C22.9363 112.299 23.8269 112.956 24.7535 113.532L30.1674 116.894C30.8362 117.31 31.415 117.855 31.8696 118.498L35.9138 124.217C36.6481 125.255 38.2239 125.137 38.7955 124.001C39.3479 122.903 40.8585 122.74 41.6735 123.66C42.3386 124.411 43.0833 125.212 43.8473 125.972C45.7813 127.896 46.5776 131.888 45.1434 134.208C42.2036 138.964 39.5904 145.095 41.6883 148.847C43.3776 151.869 46.4686 154.478 49.9083 156.532C56.5959 160.524 62.957 166.157 67.015 172.806C71.27 179.777 78.2456 188.478 88.8899 197.06C92.4189 199.905 95.0822 203.689 96.6809 207.931C103.14 225.068 118.539 251.805 143.686 261.047C145.546 261.73 147.526 262 149.508 262H327.5C338.546 262 347.5 253.046 347.5 242V20C347.5 8.95431 338.546 0 327.5 0H169C148.761 2.41935 128.789 17.6486 116.437 29.8146C110.947 35.2215 103.141 37.7971 95.511 36.7199Z" fill="var(--fill-0, black)"/>
</svg>
