<svg preserveAspectRatio="none" width="100%" height="100%" overflow="visible" style="display: block;" viewBox="0 0 28 36" fill="none" xmlns="http://www.w3.org/2000/svg">
<path id="Exclude" d="M12.2988 2.4043C18.5036 -1.14127 24.8562 0.00289876 27.2568 1.01855C27.1239 3.45609 24.579 6.17101 23.3232 7.22363C22.0826 6.82484 20.7752 7.13085 20.2764 7.33398C21.5173 7.42267 22.6034 8.1472 22.9912 8.49805C22.7141 9.32906 20.498 11.0467 17.8389 13.041C15.1797 15.0354 13.8501 16.143 13.9609 18.4697C14.0496 20.3311 15.7335 21.6828 16.5645 22.126C17.3401 21.2395 19.4453 18.9686 22.2705 17.916C24.5308 17.074 26.3516 17.3801 26.9795 17.6387C25.4837 17.5279 22.6029 21.2399 21.0518 23.0127C19.8109 24.4307 18.2451 24.6001 17.6172 24.5078C18.7805 25.5604 17.7276 28.3858 16.1211 30.4355C14.8359 32.0753 14.5147 34.4431 14.5146 35.4219C12.5646 31.3445 13.9606 26.853 14.9023 25.1172C15.833 24.807 16.8417 25.5058 17.2295 25.8936C17.0633 24.675 13.6846 24.0432 12.7422 23.6777C6.80352 21.3732 6.24153 16.4017 6.70312 14.2041C5.81667 13.2734 1.86509 14.2226 0 14.8135C1.5955 11.002 9.15969 8.23884 12.7422 7.33398C12.0331 7.28967 9.15965 7.68553 7.81152 7.88867L9.03027 5.7832C8.76434 4.89681 5.59512 3.7889 4.04395 3.3457C7.27927 1.08541 10.8954 1.77644 12.2988 2.4043ZM20.0547 1.01855C19.6569 1.01855 19.334 1.34151 19.334 1.73926C19.3341 2.13694 19.657 2.45898 20.0547 2.45898C20.4523 2.45893 20.7743 2.1369 20.7744 1.73926C20.7744 1.34154 20.4524 1.01861 20.0547 1.01855Z" fill="var(--fill-0, #063F4A)"/>
</svg>
