<svg preserveAspectRatio="none" width="100%" height="100%" overflow="visible" style="display: block;" viewBox="0 0 83 83" fill="none" xmlns="http://www.w3.org/2000/svg">
<g id="Group 1321315061">
<circle id="Ellipse 51" cx="41.5" cy="41.5" r="41.5" fill="var(--fill-0, white)"/>
<path id="Vector" d="M36.252 33.137L28.83 25.717L29.706 24.849C30.838 23.717 32.816 23.717 33.948 24.849L37.12 28.021C37.688 28.589 38 29.343 38 30.143C38 30.943 37.688 31.697 37.124 32.263L36.252 33.137ZM49.708 44.849C50.84 43.717 52.818 43.717 53.95 44.849L57.122 48.021C57.688 48.589 58 49.343 58 50.143C58 50.943 57.688 51.697 57.118 52.267L56.244 53.131L48.838 45.725L49.708 44.849ZM26.126 28.429L26.834 27.721L34.25 35.137L32.95 36.435C32.8569 36.5279 32.783 36.6382 32.7326 36.7597C32.6822 36.8812 32.6562 37.0115 32.6562 37.143C32.6562 37.2745 32.6822 37.4048 32.7326 37.5263C32.783 37.6478 32.8569 37.7581 32.95 37.851L44.122 49.023C44.3127 49.2043 44.5658 49.3055 44.829 49.3055C45.0922 49.3055 45.3453 49.2043 45.536 49.023L46.836 47.723L54.24 55.143L53.532 55.851C53.012 56.371 51.04 58.061 47.42 58.061C44.188 58.061 38.908 56.637 32.12 49.851C18.574 36.301 25.804 28.751 26.126 28.429Z" fill="var(--fill-0, #063F4A)"/>
</g>
</svg>
